<svg width="448" height="100" viewBox="0 0 448 100" fill="none" xmlns="http://www.w3.org/2000/svg">
<path d="M75.1337 69.8601C96.7412 45.9176 91.9977 0.441568 91.9977 0.441568C91.9977 0.441568 46.5222 -4.30191 22.5792 17.3051C4.90273 33.2571 4.98572 51.3436 11.8427 66.4546C12.1392 66.0301 12.4367 65.6051 12.7392 65.1716C13.5102 64.0301 14.4042 62.9316 15.2607 61.7721C16.1287 60.6191 17.0082 59.4391 17.9742 58.2956C18.9207 57.1406 19.8847 55.9676 20.8597 54.7791C21.8792 53.6336 22.9117 52.4731 23.9527 51.3036C24.4737 50.7231 24.9977 50.1396 25.5232 49.5536C26.0707 48.9891 26.6207 48.4241 27.1712 47.8566C28.2727 46.7271 29.3782 45.5931 30.4832 44.4601C31.6342 43.3751 32.7877 42.2921 33.9337 41.2116C34.5077 40.6736 35.0792 40.1361 35.6497 39.6011C36.2232 39.0701 36.8317 38.5771 37.4167 38.0681C39.7782 36.0496 42.0622 34.0311 44.4332 32.2686C45.5967 31.3666 46.7412 30.4796 47.8617 29.6116C48.9852 28.7521 50.1492 27.9921 51.2457 27.2106C53.4597 25.6731 55.5137 24.1791 57.5367 22.9811C57.8682 22.7751 58.3027 22.8646 58.5262 23.1851C58.7487 23.5056 58.6817 23.9441 58.3732 24.1836C58.3577 24.1956 58.3427 24.2076 58.3282 24.2186C56.4412 25.6281 54.5462 27.3311 52.5042 29.0941C51.4942 29.9866 50.4187 30.8651 49.3867 31.8366C48.3617 32.8161 47.3142 33.8171 46.2507 34.8346C44.0782 36.8321 42.0087 39.0701 39.8702 41.3166C39.3412 41.8816 38.7917 42.4356 38.2712 43.0176C37.7597 43.6066 37.2462 44.1981 36.7312 44.7906C35.7012 45.9781 34.6692 47.1691 33.6347 48.3611C32.6517 49.5961 31.6702 50.8321 30.6902 52.0621C30.2012 52.6786 29.7122 53.2936 29.2262 53.9081C28.7637 54.5401 28.3027 55.1701 27.8422 55.7976C26.9272 57.0581 26.0207 58.3081 25.1232 59.5456C24.2762 60.8166 23.4387 62.0736 22.6162 63.3111C21.7727 64.5356 21.0182 65.7891 20.2727 67.0136C19.5392 68.2461 18.7672 69.4176 18.1137 70.6211C17.4452 71.8171 16.7957 72.9791 16.1677 74.1031C15.5457 75.2341 15.0002 76.3606 14.4472 77.4251C14.1747 77.9601 13.9072 78.4831 13.6457 78.9951C13.4027 79.5186 13.1652 80.0296 12.9317 80.5271C12.4732 81.5276 12.0172 82.4636 11.6257 83.3681C10.8602 85.1966 10.1792 86.7421 9.66721 88.1941C9.40921 88.8936 9.17971 89.5186 8.97871 90.0616C8.81671 90.5571 8.67722 90.9786 8.56522 91.3201C8.34022 92.0051 8.21973 92.3696 8.21973 92.3696C8.18873 92.4656 8.15523 92.5806 8.12873 92.6781C7.29523 95.7776 9.13323 98.9671 12.2342 99.7996C15.3347 100.632 18.5212 98.7931 19.3557 95.6941L19.3612 95.6736C19.3612 95.6736 19.4612 95.3026 19.6467 94.6071C19.7407 94.2601 19.8552 93.8311 19.9907 93.3261C20.1287 92.8826 20.2892 92.3736 20.4672 91.8021C20.7832 90.6966 21.3357 89.2211 21.9237 87.5621C22.2282 86.7301 22.5992 85.8541 22.9632 84.9236C23.1497 84.4596 23.3412 83.9826 23.5352 83.4951C23.7492 83.0131 23.9677 82.5191 24.1917 82.0146C24.4642 81.4101 24.7402 80.7811 25.0227 80.1436C40.3232 87.4411 58.8412 87.9146 75.1337 69.8601Z" fill="#228B22"/>
<path d="M128.888 70.741C126.114 70.741 123.53 70.1995 121.136 69.1165C118.761 68.0335 116.681 66.542 114.895 64.642C113.128 62.723 111.75 60.5095 110.762 58.0015C109.774 55.4935 109.28 52.824 109.28 49.993C109.28 46.953 109.822 44.179 110.905 41.671C111.988 39.163 113.46 36.997 115.322 35.173C117.184 33.33 119.293 31.9145 121.649 30.9265C124.024 29.9195 126.494 29.416 129.059 29.416C131.871 29.416 134.626 30.0715 137.324 31.3825C140.022 32.6935 142.435 34.774 144.563 37.624L137.552 41.386C136.336 39.98 134.978 38.935 133.477 38.251C131.995 37.567 130.484 37.225 128.945 37.225C127.406 37.225 125.924 37.5385 124.499 38.1655C123.093 38.7925 121.839 39.6855 120.737 40.8445C119.635 42.0035 118.761 43.3715 118.115 44.9485C117.469 46.5255 117.146 48.264 117.146 50.164C117.146 51.931 117.45 53.584 118.058 55.123C118.685 56.662 119.54 58.011 120.623 59.17C121.706 60.329 122.96 61.241 124.385 61.906C125.829 62.552 127.368 62.875 129.002 62.875C130.009 62.875 130.997 62.7325 131.966 62.4475C132.954 62.1435 133.895 61.7065 134.788 61.1365C135.681 60.5665 136.498 59.854 137.239 58.999C137.999 58.144 138.664 57.156 139.234 56.035H133.049V49.195H148.496C148.61 52.14 148.183 54.914 147.214 57.517C146.245 60.12 144.858 62.419 143.053 64.414C141.248 66.39 139.139 67.9385 136.726 69.0595C134.313 70.1805 131.7 70.741 128.888 70.741ZM153.978 70L153.949 41.5H161.815L161.844 43.609C162.794 42.697 163.905 41.9845 165.178 41.4715C166.47 40.9585 167.829 40.702 169.254 40.702C170.299 40.702 171.344 40.854 172.389 41.158L169.282 49.1095C168.598 48.8245 167.905 48.682 167.202 48.682C166.214 48.682 165.311 48.9195 164.494 49.3945C163.677 49.8695 163.031 50.5155 162.556 51.3325C162.081 52.1305 161.844 53.033 161.844 54.04V70H153.978ZM186.695 70.741C184.073 70.741 181.679 70.0665 179.513 68.7175C177.366 67.3685 175.647 65.554 174.355 63.274C173.082 60.994 172.445 58.4765 172.445 55.7215C172.445 53.6505 172.816 51.7125 173.557 49.9075C174.298 48.0835 175.314 46.4875 176.606 45.1195C177.917 43.7325 179.437 42.6495 181.166 41.8705C182.895 41.0915 184.738 40.702 186.695 40.702C188.956 40.702 191.018 41.1865 192.88 42.1555C194.761 43.1245 196.347 44.445 197.639 46.117C198.95 47.789 199.881 49.6795 200.432 51.7885C201.002 53.8975 201.097 56.092 200.717 58.372H180.938C181.185 59.208 181.565 59.968 182.078 60.652C182.61 61.317 183.256 61.849 184.016 62.248C184.795 62.647 185.688 62.856 186.695 62.875C187.683 62.894 188.595 62.666 189.431 62.191C190.267 61.716 190.98 61.0795 191.569 60.2815L199.606 62.134C198.447 64.661 196.718 66.732 194.419 68.347C192.12 69.943 189.545 70.741 186.695 70.741ZM180.653 52.558H192.766C192.519 51.608 192.101 50.753 191.512 49.993C190.923 49.233 190.21 48.6345 189.374 48.1975C188.557 47.7605 187.664 47.542 186.695 47.542C185.745 47.542 184.852 47.7605 184.016 48.1975C183.199 48.6345 182.496 49.233 181.907 49.993C181.337 50.734 180.919 51.589 180.653 52.558ZM218.034 70.741C215.412 70.741 213.018 70.0665 210.852 68.7175C208.705 67.3685 206.986 65.554 205.694 63.274C204.421 60.994 203.784 58.4765 203.784 55.7215C203.784 53.6505 204.155 51.7125 204.896 49.9075C205.637 48.0835 206.653 46.4875 207.945 45.1195C209.256 43.7325 210.776 42.6495 212.505 41.8705C214.234 41.0915 216.077 40.702 218.034 40.702C220.295 40.702 222.357 41.1865 224.219 42.1555C226.1 43.1245 227.686 44.445 228.978 46.117C230.289 47.789 231.22 49.6795 231.771 51.7885C232.341 53.8975 232.436 56.092 232.056 58.372H212.277C212.524 59.208 212.904 59.968 213.417 60.652C213.949 61.317 214.595 61.849 215.355 62.248C216.134 62.647 217.027 62.856 218.034 62.875C219.022 62.894 219.934 62.666 220.77 62.191C221.606 61.716 222.319 61.0795 222.908 60.2815L230.945 62.134C229.786 64.661 228.057 66.732 225.758 68.347C223.459 69.943 220.884 70.741 218.034 70.741ZM211.992 52.558H224.105C223.858 51.608 223.44 50.753 222.851 49.993C222.262 49.233 221.549 48.6345 220.713 48.1975C219.896 47.7605 219.003 47.542 218.034 47.542C217.084 47.542 216.191 47.7605 215.355 48.1975C214.538 48.6345 213.835 49.233 213.246 49.993C212.676 50.734 212.258 51.589 211.992 52.558ZM263.087 51.874V70H255.221V54.04C255.221 53.033 254.974 52.1305 254.48 51.3325C254.005 50.5155 253.359 49.8695 252.542 49.3945C251.744 48.9195 250.851 48.682 249.863 48.682C248.875 48.682 247.972 48.9195 247.155 49.3945C246.338 49.8695 245.692 50.5155 245.217 51.3325C244.742 52.1305 244.505 53.033 244.505 54.04V70H236.639L236.61 41.5H244.476L244.505 43.609C245.455 42.697 246.566 41.9845 247.839 41.4715C249.131 40.9585 250.49 40.702 251.915 40.702C253.986 40.702 255.857 41.2055 257.529 42.2125C259.22 43.2195 260.569 44.5685 261.576 46.2595C262.583 47.9315 263.087 49.803 263.087 51.874ZM282.842 70H275.09L265.571 41.5H273.266L278.995 58.5715L284.666 41.5H292.361L298.033 58.5715L303.733 41.5H311.456L301.909 70H294.185L288.514 52.9L282.842 70ZM335.348 41.5H343.214V70H335.319L334.949 67.036C334.208 68.138 333.258 69.031 332.099 69.715C330.94 70.399 329.581 70.741 328.023 70.741C325.895 70.741 323.91 70.342 322.067 69.544C320.224 68.746 318.599 67.644 317.193 66.238C315.787 64.832 314.685 63.2075 313.887 61.3645C313.108 59.5025 312.719 57.5075 312.719 55.3795C312.719 53.3465 313.089 51.4465 313.83 49.6795C314.571 47.9125 315.616 46.3545 316.965 45.0055C318.314 43.6565 319.863 42.602 321.611 41.842C323.378 41.082 325.278 40.702 327.311 40.702C329.059 40.702 330.626 41.0725 332.013 41.8135C333.419 42.5545 334.645 43.495 335.69 44.635L335.348 41.5ZM327.824 63.1885C329.116 63.1885 330.284 62.856 331.329 62.191C332.374 61.526 333.201 60.633 333.809 59.512C334.417 58.372 334.721 57.118 334.721 55.75C334.721 54.363 334.417 53.109 333.809 51.988C333.201 50.867 332.374 49.974 331.329 49.309C330.284 48.644 329.116 48.3115 327.824 48.3115C326.513 48.3115 325.325 48.644 324.261 49.309C323.197 49.974 322.352 50.8765 321.725 52.0165C321.098 53.1375 320.784 54.382 320.784 55.75C320.784 57.118 321.098 58.372 321.725 59.512C322.371 60.633 323.226 61.526 324.29 62.191C325.354 62.856 326.532 63.1885 327.824 63.1885ZM366.71 41.5H375.089L359.471 84.25H351.149L356.279 70L346.019 41.5H354.626L360.212 59.2555L366.71 41.5ZM381.097 70.741C379.995 70.741 379.054 70.361 378.275 69.601C377.515 68.822 377.135 67.872 377.135 66.751C377.135 65.668 377.515 64.737 378.275 63.958C379.054 63.179 379.995 62.7895 381.097 62.7895C382.199 62.7895 383.139 63.179 383.918 63.958C384.697 64.737 385.087 65.668 385.087 66.751C385.087 67.872 384.697 68.822 383.918 69.601C383.139 70.361 382.199 70.741 381.097 70.741ZM408.229 60.994L415.297 64.813C413.986 66.599 412.342 68.0335 410.366 69.1165C408.39 70.1995 406.234 70.741 403.897 70.741C401.275 70.741 398.881 70.0665 396.715 68.7175C394.568 67.3685 392.848 65.5635 391.556 63.3025C390.283 61.0225 389.647 58.505 389.647 55.75C389.647 53.66 390.017 51.7125 390.758 49.9075C391.499 48.0835 392.516 46.4875 393.808 45.1195C395.119 43.7325 396.639 42.6495 398.368 41.8705C400.097 41.0915 401.94 40.702 403.897 40.702C406.234 40.702 408.39 41.2435 410.366 42.3265C412.342 43.4095 413.986 44.863 415.297 46.687L408.229 50.506C407.64 49.879 406.965 49.404 406.205 49.081C405.464 48.739 404.695 48.568 403.897 48.568C402.681 48.568 401.588 48.9005 400.619 49.5655C399.669 50.2305 398.909 51.114 398.339 52.216C397.788 53.299 397.513 54.477 397.513 55.75C397.513 57.004 397.798 58.1725 398.368 59.2555C398.938 60.3385 399.698 61.2125 400.648 61.8775C401.617 62.5425 402.7 62.875 403.897 62.875C404.714 62.875 405.493 62.704 406.234 62.362C406.975 62.02 407.64 61.564 408.229 60.994ZM431.896 70.741C429.274 70.741 426.88 70.0665 424.714 68.7175C422.567 67.3685 420.847 65.5635 419.555 63.3025C418.282 61.0225 417.646 58.505 417.646 55.75C417.646 53.66 418.016 51.7125 418.757 49.9075C419.498 48.0835 420.515 46.4875 421.807 45.1195C423.118 43.7325 424.638 42.6495 426.367 41.8705C428.096 41.0915 429.939 40.702 431.896 40.702C434.518 40.702 436.902 41.3765 439.049 42.7255C441.215 44.0745 442.935 45.889 444.208 48.169C445.5 50.449 446.146 52.976 446.146 55.75C446.146 57.821 445.775 59.759 445.034 61.564C444.293 63.369 443.267 64.965 441.956 66.352C440.664 67.72 439.154 68.7935 437.425 69.5725C435.715 70.3515 433.872 70.741 431.896 70.741ZM431.896 62.875C433.112 62.875 434.204 62.552 435.173 61.906C436.142 61.241 436.902 60.367 437.453 59.284C438.004 58.201 438.28 57.023 438.28 55.75C438.28 54.439 437.985 53.242 437.396 52.159C436.826 51.057 436.057 50.183 435.088 49.537C434.119 48.891 433.055 48.568 431.896 48.568C430.699 48.568 429.616 48.9005 428.647 49.5655C427.678 50.2305 426.908 51.1045 426.338 52.1875C425.787 53.2705 425.512 54.458 425.512 55.75C425.512 57.099 425.797 58.315 426.367 59.398C426.956 60.462 427.735 61.3075 428.704 61.9345C429.673 62.5615 430.737 62.875 431.896 62.875Z" fill="#228B22"/>
</svg>
